<svg id="svg" version="1.1" xmlns="http://www.w3.org/2000/svg" xmlns:xlink="http://www.w3.org/1999/xlink" width="400" height="225.36585365853657" viewBox="0, 0, 400,225.36585365853657"><g id="svgg"><path id="path0" d="M80.550 57.546 C 79.913 59.558,79.418 61.229,79.449 61.260 C 79.498 61.310,82.736 57.759,85.005 55.167 C 85.961 54.075,85.740 53.898,83.413 53.893 L 81.707 53.890 80.550 57.546 M42.319 55.182 C 42.263 55.277,42.143 55.710,42.052 56.144 C 41.961 56.578,41.811 57.035,41.719 57.159 C 41.626 57.283,40.974 59.820,40.270 62.796 C 39.565 65.772,38.904 68.363,38.801 68.553 C 38.535 69.045,38.239 70.395,38.300 70.835 C 38.329 71.040,37.425 74.794,36.292 79.178 C 35.158 83.561,33.787 88.871,33.245 90.977 C 32.702 93.083,32.108 95.112,31.926 95.486 C 31.743 95.861,31.225 97.740,30.776 99.662 C 30.327 101.584,29.866 103.360,29.751 103.608 C 29.504 104.144,28.861 106.622,28.861 107.039 C 28.861 107.200,30.348 108.777,32.166 110.543 C 33.983 112.309,38.778 117.018,42.820 121.006 L 50.169 128.258 51.860 128.615 C 53.913 129.048,67.819 131.755,75.874 133.289 C 83.050 134.657,85.943 135.240,86.000 135.331 C 86.052 135.413,87.960 140.241,90.974 147.914 C 92.167 150.953,93.485 154.250,93.902 155.242 C 94.885 157.581,96.735 162.417,96.669 162.476 C 96.641 162.501,94.639 161.714,92.221 160.726 C 87.232 158.690,75.285 153.863,65.280 149.842 L 58.520 147.125 56.645 142.954 C 55.614 140.660,54.222 137.514,53.552 135.964 C 51.256 130.657,50.300 128.665,50.201 128.989 C 50.097 129.332,49.792 130.990,48.794 136.653 L 48.175 140.160 44.212 140.543 C 40.737 140.879,39.334 141.101,38.131 141.505 C 37.837 141.604,39.112 142.596,44.627 146.561 C 45.749 147.368,46.667 148.078,46.668 148.140 C 46.670 148.202,40.013 155.355,31.876 164.036 C 23.740 172.717,15.553 181.470,13.683 183.488 C 9.806 187.672,10.126 187.559,8.796 185.213 C 7.958 183.735,7.770 183.521,7.704 183.972 C 7.629 184.488,7.967 187.873,8.236 189.303 C 8.362 189.973,4.066 196.632,2.294 198.514 C 1.933 198.897,1.269 199.768,0.819 200.448 L 0.000 201.685 0.000 210.313 C 0.000 215.058,0.025 218.948,0.056 218.958 C 0.087 218.968,2.041 219.118,4.397 219.292 C 6.753 219.465,9.848 219.711,11.274 219.837 C 12.700 219.964,15.947 220.107,18.489 220.155 C 27.258 220.321,34.006 220.899,37.091 221.748 C 40.475 222.679,41.590 222.923,43.856 223.227 L 45.660 223.469 46.240 222.783 C 46.988 221.898,46.847 221.834,48.463 223.788 L 49.862 225.479 71.629 225.479 L 93.397 225.479 95.361 223.393 C 96.441 222.246,99.138 219.329,101.355 216.911 C 103.571 214.493,105.454 212.484,105.539 212.448 C 105.716 212.373,110.145 214.039,124.464 219.569 C 126.387 220.312,130.633 221.945,133.900 223.199 L 139.842 225.479 150.417 225.479 C 159.108 225.479,160.992 225.425,160.992 225.177 C 160.992 225.011,160.495 223.362,159.887 221.513 C 157.369 213.856,152.117 197.718,150.500 192.672 C 149.546 189.696,148.059 185.130,147.194 182.525 C 145.248 176.667,145.294 177.235,145.761 164.825 C 146.124 155.196,146.159 154.763,146.632 154.075 C 147.193 153.260,152.075 147.212,153.439 145.643 C 153.935 145.073,155.812 142.793,157.610 140.576 C 161.358 135.957,164.179 132.523,164.968 131.619 C 165.350 131.181,165.427 130.965,165.226 130.898 C 165.068 130.845,163.010 130.275,160.654 129.631 C 150.362 126.818,147.488 126.014,146.110 125.565 C 145.304 125.302,142.666 124.552,140.248 123.898 C 137.830 123.245,133.213 121.974,129.989 121.074 C 126.764 120.174,122.604 119.019,120.744 118.506 C 118.884 117.994,117.353 117.476,117.342 117.355 C 117.332 117.235,117.266 116.984,117.197 116.798 C 116.936 116.100,116.333 101.802,116.536 101.127 C 116.738 100.455,117.602 98.343,118.379 96.618 C 118.602 96.122,119.160 94.803,119.619 93.687 C 120.078 92.570,120.939 90.541,121.532 89.177 C 123.445 84.781,125.183 80.662,126.051 78.467 C 126.739 76.728,129.125 71.077,130.680 67.501 C 131.085 66.570,131.996 66.707,115.107 65.153 C 112.255 64.891,107.131 64.378,103.720 64.015 C 100.310 63.651,93.281 62.944,88.101 62.445 C 82.921 61.945,77.645 61.339,76.376 61.097 C 75.108 60.855,70.519 60.053,66.178 59.316 C 61.838 58.579,56.511 57.657,54.340 57.268 C 52.170 56.879,48.697 56.271,46.621 55.917 C 44.546 55.563,42.752 55.214,42.634 55.141 C 42.517 55.069,42.375 55.087,42.319 55.182 M126.370 91.150 L 125.479 92.108 126.437 91.217 C 127.329 90.388,127.499 90.192,127.329 90.192 C 127.292 90.192,126.861 90.623,126.370 91.150 M119.947 97.802 L 118.715 99.098 120.011 97.866 C 120.724 97.188,121.308 96.604,121.308 96.569 C 121.308 96.402,121.092 96.597,119.947 97.802 M148.356 156.764 C 149.290 157.760,149.493 157.939,149.493 157.770 C 149.493 157.733,149.011 157.251,148.422 156.699 L 147.351 155.693 148.356 156.764 M163.826 180.045 C 163.902 186.381,164.125 217.451,164.146 224.530 L 164.149 225.497 165.974 225.432 L 167.798 225.366 168.370 224.014 C 168.684 223.269,169.524 221.088,170.237 219.166 C 173.147 211.316,173.904 209.309,174.331 208.314 L 174.778 207.271 173.875 204.368 C 173.379 202.772,172.497 199.944,171.916 198.083 C 170.953 194.998,170.362 193.075,167.413 183.427 C 166.253 179.633,163.941 172.243,163.816 171.928 C 163.766 171.804,163.771 175.457,163.826 180.045 " stroke="none" fill="#f59314" fill-rule="evenodd"></path><path id="path1" d="M242.728 1.233 C 241.622 2.421,241.572 2.446,240.023 2.596 C 238.439 2.749,233.334 3.909,232.687 4.263 C 232.497 4.367,232.033 4.520,231.655 4.603 C 230.367 4.886,224.563 7.558,224.389 7.948 C 224.348 8.041,224.193 8.117,224.045 8.117 C 223.813 8.117,223.031 8.639,220.078 10.763 C 219.077 11.484,217.275 13.129,215.617 14.837 L 213.984 16.519 214.602 17.352 C 219.034 23.325,220.587 25.462,220.607 25.617 C 220.620 25.718,218.145 26.223,215.107 26.738 C 212.069 27.254,206.488 28.199,202.706 28.840 C 198.923 29.480,194.508 30.255,192.894 30.561 C 191.280 30.867,186.410 31.718,182.071 32.452 C 170.105 34.477,168.445 34.787,168.564 34.979 C 168.624 35.076,169.456 35.698,170.413 36.362 C 171.370 37.026,176.110 40.346,180.947 43.740 C 189.345 49.633,191.094 50.864,195.321 53.851 C 203.202 59.420,205.336 60.924,207.215 62.231 C 213.116 66.337,212.784 65.979,214.103 69.673 C 214.654 71.215,215.333 72.997,219.050 82.638 C 219.719 84.374,220.984 87.676,221.859 89.976 L 223.452 94.157 223.395 116.421 L 223.337 138.685 220.180 135.137 C 216.477 130.975,212.381 126.494,212.279 126.494 C 212.221 126.494,218.429 139.446,220.300 143.228 L 220.827 144.292 220.318 150.105 C 220.038 153.303,219.516 158.861,219.158 162.458 C 217.991 174.167,216.884 186.294,216.975 186.385 C 217.024 186.434,218.609 185.814,220.498 185.007 C 222.386 184.200,223.974 183.540,224.026 183.540 C 224.157 183.540,232.071 180.201,235.062 178.883 L 237.542 177.790 239.910 177.833 C 241.994 177.871,259.458 178.793,265.456 179.182 C 267.352 179.305,267.646 179.376,267.528 179.685 C 267.219 180.497,267.877 179.509,268.714 177.903 C 269.198 176.973,270.536 174.542,271.687 172.500 C 275.635 165.494,279.230 159.074,279.969 157.707 C 281.015 155.772,281.079 155.738,285.457 154.801 C 287.627 154.337,291.229 153.553,293.461 153.060 C 295.693 152.567,300.259 151.568,303.608 150.842 C 306.956 150.115,311.065 149.222,312.740 148.857 C 314.414 148.492,317.103 147.922,318.715 147.590 C 322.238 146.863,322.440 146.808,322.374 146.586 C 322.283 146.281,333.806 135.072,334.216 135.067 C 334.676 135.061,341.518 130.361,344.306 128.136 C 349.956 123.625,354.867 117.368,357.315 111.559 C 358.098 109.704,366.767 99.784,368.091 99.231 C 368.522 99.051,377.106 90.192,377.997 89.008 L 378.633 88.162 378.099 88.157 C 376.981 88.146,356.381 87.711,346.561 87.490 C 340.919 87.364,331.136 87.159,324.823 87.036 C 311.990 86.785,312.960 86.897,313.642 85.748 C 314.671 84.012,325.309 65.505,329.038 58.963 C 333.280 51.521,334.677 49.079,336.506 45.913 C 337.572 44.068,338.444 42.470,338.444 42.361 C 338.444 42.253,338.563 42.165,338.707 42.165 C 338.852 42.165,338.911 42.105,338.838 42.032 C 338.678 41.872,334.249 44.054,333.935 44.448 C 333.873 44.525,332.782 45.110,331.511 45.746 C 330.240 46.383,329.200 46.995,329.200 47.107 C 329.200 47.218,328.515 47.687,327.678 48.149 C 316.595 54.260,316.965 54.080,315.015 54.325 C 309.961 54.958,309.482 55.141,310.228 56.150 C 311.082 57.306,311.870 57.648,295.537 49.773 L 291.075 47.622 288.395 42.356 C 285.974 37.599,285.649 36.817,285.040 34.272 C 283.263 26.851,280.422 21.482,274.938 15.177 C 274.162 14.285,273.277 13.062,272.972 12.460 C 272.328 11.189,271.848 10.609,266.404 4.531 L 262.347 0.000 253.101 0.011 L 243.856 0.023 242.728 1.233 M269.848 92.390 C 271.522 95.363,272.406 96.993,274.476 100.925 C 275.513 102.897,278.768 108.961,281.708 114.402 C 284.649 119.843,286.992 124.358,286.914 124.436 C 286.761 124.590,284.490 125.116,275.085 127.174 C 271.674 127.920,268.377 128.671,267.756 128.842 C 267.136 129.014,265.817 129.324,264.825 129.532 C 263.833 129.739,260.637 130.455,257.723 131.121 C 254.808 131.788,250.705 132.698,248.604 133.144 C 246.503 133.589,243.713 134.209,242.403 134.521 C 241.094 134.832,237.740 135.583,234.949 136.190 C 232.159 136.796,228.570 137.607,226.973 137.991 C 225.377 138.375,223.968 138.654,223.842 138.612 C 223.716 138.571,226.592 135.345,230.233 131.444 C 257.402 102.337,268.568 90.417,268.667 90.417 C 268.706 90.417,269.237 91.305,269.848 92.390 M394.584 181.342 C 395.884 182.675,396.975 183.766,397.008 183.766 C 397.171 183.766,396.896 183.476,394.645 181.281 L 392.221 178.918 394.584 181.342 " stroke="none" fill="#3871ba" fill-rule="evenodd"></path><path id="path2" d="M156.483 0.696 C 155.552 1.064,153.219 1.932,151.297 2.623 C 146.982 4.176,147.211 3.954,147.596 6.201 C 148.007 8.606,150.390 26.461,150.310 26.540 C 150.276 26.575,149.167 25.919,147.845 25.083 C 146.524 24.247,143.437 22.300,140.985 20.757 C 138.534 19.214,134.904 16.922,132.920 15.665 C 130.936 14.407,128.359 12.798,127.194 12.089 L 125.076 10.800 125.221 12.221 C 125.300 13.002,125.519 15.265,125.707 17.249 C 125.895 19.233,126.249 22.480,126.493 24.464 C 126.737 26.449,127.445 32.993,128.067 39.008 C 128.688 45.023,129.345 51.110,129.526 52.537 C 129.708 53.963,130.125 57.717,130.453 60.879 L 131.050 66.629 129.762 69.673 C 129.054 71.347,127.941 73.935,127.290 75.423 C 126.639 76.911,126.029 78.382,125.935 78.692 C 125.763 79.262,123.512 84.619,121.531 89.177 C 120.938 90.541,120.078 92.570,119.619 93.687 C 119.160 94.803,118.603 96.122,118.380 96.618 C 117.335 98.946,116.566 100.882,116.623 101.046 C 116.657 101.145,119.604 98.210,123.171 94.525 C 134.652 82.663,140.509 76.762,140.228 77.339 C 139.974 77.861,138.236 80.898,133.970 88.275 C 133.037 89.887,131.855 91.967,131.342 92.897 C 130.465 94.486,129.613 95.970,125.254 103.495 C 121.056 110.741,117.460 117.075,117.413 117.305 C 117.384 117.447,118.822 117.961,120.744 118.496 C 122.604 119.014,126.764 120.174,129.989 121.074 C 133.213 121.974,137.830 123.243,140.248 123.895 C 142.666 124.547,145.152 125.253,145.772 125.465 C 146.810 125.820,149.282 126.513,161.074 129.756 C 163.481 130.418,165.404 131.065,165.503 131.246 C 165.666 131.547,167.389 136.937,170.135 145.739 C 170.786 147.829,171.406 149.623,171.511 149.726 C 171.616 149.829,174.097 148.474,177.024 146.715 C 179.950 144.956,188.854 139.611,196.809 134.837 C 204.764 130.062,211.142 126.127,210.982 126.092 C 210.822 126.057,204.506 126.695,196.947 127.511 C 172.434 130.156,166.297 130.792,165.918 130.728 C 165.598 130.674,165.664 130.366,166.391 128.523 C 167.170 126.551,168.707 122.597,173.099 111.274 C 174.013 108.918,175.131 106.039,175.584 104.876 L 176.406 102.762 175.699 99.690 C 175.310 98.000,174.219 93.320,173.275 89.290 C 166.629 60.906,165.858 57.516,166.018 57.357 C 166.094 57.281,166.998 57.380,168.027 57.578 C 176.572 59.220,187.233 61.245,190.304 61.809 C 192.351 62.185,197.373 63.141,201.466 63.933 C 210.539 65.689,212.401 66.031,212.401 65.943 C 212.401 65.874,211.185 65.005,207.215 62.235 C 205.337 60.925,203.070 59.326,195.321 53.851 C 191.094 50.864,189.345 49.633,180.947 43.740 C 176.110 40.346,171.370 37.026,170.413 36.362 C 169.456 35.698,168.624 35.076,168.564 34.979 C 168.445 34.787,170.105 34.477,182.071 32.452 C 186.410 31.718,191.280 30.867,192.894 30.561 C 194.508 30.255,198.923 29.480,202.706 28.840 C 206.488 28.199,212.048 27.257,215.060 26.746 C 218.072 26.235,220.558 25.751,220.584 25.670 C 220.644 25.482,219.250 23.572,211.710 13.512 C 210.648 12.095,209.234 10.175,208.567 9.245 C 207.901 8.315,206.094 5.854,204.554 3.777 L 201.752 0.000 179.963 0.013 L 158.174 0.026 156.483 0.696 M165.614 151.066 C 163.010 151.533,159.591 152.177,158.017 152.497 C 156.443 152.817,153.170 153.413,150.745 153.821 C 148.319 154.228,146.360 154.621,146.392 154.694 C 146.485 154.909,161.489 169.275,162.860 170.460 C 163.329 170.866,163.747 171.160,163.788 171.112 C 163.829 171.065,164.226 170.011,164.671 168.771 C 165.116 167.531,166.257 164.386,167.207 161.781 C 169.857 154.514,171.364 150.334,171.364 150.248 C 171.364 150.079,170.171 150.249,165.614 151.066 " stroke="none" fill="#ce054d" fill-rule="evenodd"></path><path id="path3" d="M126.922 1.497 C 126.621 3.010,126.501 3.222,125.598 3.833 C 125.324 4.019,124.820 4.374,124.480 4.622 C 122.986 5.711,118.387 10.310,117.512 11.590 C 117.181 12.073,116.809 12.615,116.685 12.794 C 116.561 12.974,116.138 13.477,115.744 13.914 C 115.350 14.351,114.906 15.001,114.758 15.358 C 114.610 15.716,114.400 16.009,114.291 16.009 C 114.182 16.009,114.092 16.122,114.092 16.260 C 114.092 16.398,113.643 17.235,113.093 18.120 C 112.544 19.005,112.026 20.008,111.942 20.349 C 111.858 20.691,111.709 20.970,111.612 20.970 C 111.515 20.970,111.367 21.244,111.283 21.579 C 111.198 21.915,110.735 23.005,110.253 24.003 C 109.772 25.001,109.309 26.249,109.226 26.776 C 109.142 27.303,108.986 27.734,108.878 27.734 C 108.769 27.734,108.681 27.915,108.681 28.136 C 108.681 28.357,108.199 29.050,107.610 29.677 C 107.021 30.304,105.597 31.874,104.446 33.165 C 103.294 34.456,101.800 36.122,101.125 36.866 C 100.449 37.610,99.302 38.878,98.574 39.684 C 97.089 41.331,94.483 44.205,92.982 45.851 C 92.234 46.671,91.888 46.902,91.596 46.774 C 90.987 46.507,87.722 46.024,86.442 46.010 C 85.801 46.003,85.187 45.872,85.064 45.716 C 84.841 45.434,86.208 40.157,86.568 39.910 C 86.700 39.819,87.367 37.806,88.079 35.344 C 88.249 34.753,87.710 34.849,85.976 35.719 C 85.132 36.143,83.732 36.756,82.864 37.082 C 81.995 37.408,80.474 38.070,79.481 38.552 C 78.489 39.035,76.764 39.804,75.648 40.262 C 74.532 40.719,73.315 41.276,72.943 41.499 C 72.570 41.722,71.860 42.051,71.364 42.231 C 69.425 42.934,66.404 44.236,66.292 44.418 C 66.226 44.524,65.768 44.757,65.274 44.937 C 63.679 45.516,60.579 46.836,59.188 47.528 C 58.444 47.898,57.125 48.479,56.257 48.819 C 55.389 49.159,54.007 49.771,53.185 50.178 C 52.364 50.584,50.639 51.340,49.352 51.856 C 48.065 52.373,46.607 53.023,46.110 53.301 C 45.614 53.580,44.577 54.051,43.805 54.350 C 41.958 55.063,42.106 55.147,46.581 55.910 C 48.679 56.268,52.170 56.879,54.340 57.268 C 56.511 57.657,61.838 58.579,66.178 59.316 C 70.519 60.053,75.115 60.856,76.392 61.099 C 77.669 61.343,82.539 61.905,87.215 62.348 C 91.890 62.791,96.984 63.298,98.534 63.476 C 102.865 63.972,116.631 65.331,121.421 65.735 C 123.777 65.934,126.865 66.239,128.284 66.414 C 129.703 66.588,130.900 66.695,130.945 66.650 C 131.026 66.569,130.483 61.322,129.215 49.944 C 128.842 46.595,128.180 40.457,127.744 36.302 C 127.309 32.148,126.747 26.991,126.496 24.843 C 126.027 20.839,125.141 11.925,125.141 11.217 C 125.141 10.796,126.304 11.474,135.175 17.068 C 137.531 18.553,141.234 20.887,143.405 22.253 C 145.575 23.619,148.001 25.158,148.796 25.673 C 149.592 26.187,150.268 26.583,150.298 26.551 C 150.377 26.471,147.988 8.655,147.576 6.257 C 147.390 5.172,147.238 4.244,147.238 4.196 C 147.238 4.148,148.278 3.730,149.549 3.267 C 153.185 1.942,157.697 0.213,157.809 0.102 C 157.865 0.046,151.005 0.000,142.565 0.000 L 127.219 0.000 126.922 1.497 M202.985 1.602 C 203.638 2.484,204.707 3.929,205.363 4.815 C 206.565 6.441,208.988 9.778,211.526 13.303 C 212.284 14.357,213.163 15.496,213.479 15.834 L 214.053 16.448 215.651 14.802 C 217.279 13.125,219.084 11.479,220.078 10.763 C 223.031 8.639,223.813 8.117,224.045 8.117 C 224.193 8.117,224.348 8.041,224.389 7.948 C 224.563 7.558,230.367 4.886,231.655 4.603 C 232.033 4.520,232.497 4.367,232.687 4.263 C 233.317 3.919,238.418 2.751,239.971 2.596 C 241.597 2.433,242.354 1.994,243.305 0.659 L 243.774 0.000 222.786 0.000 L 201.799 0.000 202.985 1.602 M262.725 0.395 C 262.910 0.612,264.777 2.706,266.874 5.049 C 271.874 10.633,272.323 11.179,272.975 12.466 C 273.279 13.065,274.162 14.285,274.938 15.177 C 280.422 21.482,283.263 26.851,285.040 34.272 C 285.649 36.817,285.974 37.599,288.395 42.356 L 291.075 47.622 295.537 49.773 C 311.870 57.648,311.082 57.306,310.228 56.150 C 309.482 55.141,309.961 54.958,315.015 54.325 C 316.965 54.080,316.595 54.260,327.678 48.149 C 329.416 47.190,329.472 47.089,328.467 46.726 C 326.375 45.972,313.064 45.915,311.638 46.654 C 311.438 46.758,310.690 46.914,309.977 47.000 C 309.264 47.087,308.554 47.281,308.399 47.433 C 307.893 47.927,305.247 48.297,304.875 47.926 C 304.515 47.566,302.090 44.115,300.235 41.324 C 299.557 40.303,298.795 39.291,298.543 39.075 C 298.290 38.859,298.083 38.611,298.083 38.525 C 298.083 38.356,296.030 35.277,295.553 34.732 C 295.066 34.175,294.151 32.838,293.836 32.223 C 293.671 31.902,293.144 31.198,292.665 30.658 C 292.186 30.117,291.665 29.239,291.507 28.705 C 291.350 28.171,291.155 27.734,291.075 27.734 C 290.995 27.734,290.801 27.125,290.643 26.381 C 290.485 25.637,290.268 25.028,290.161 25.028 C 290.054 25.028,289.966 24.892,289.966 24.727 C 289.966 24.561,289.549 23.571,289.038 22.528 C 288.528 21.485,287.843 20.073,287.516 19.391 C 287.189 18.709,286.746 17.956,286.530 17.717 C 286.315 17.478,286.073 17.072,285.993 16.815 C 285.913 16.558,285.556 15.978,285.201 15.526 C 284.846 15.074,284.555 14.607,284.555 14.488 C 284.555 14.368,284.306 14.003,284.002 13.675 C 283.698 13.347,283.128 12.611,282.735 12.040 C 281.980 10.943,280.381 9.166,278.692 7.548 C 276.605 5.549,275.192 4.288,275.037 4.286 C 274.949 4.285,274.340 3.848,273.684 3.314 C 273.028 2.781,272.339 2.272,272.153 2.184 C 271.967 2.096,271.511 1.826,271.139 1.584 C 268.976 0.176,268.325 -0.000,265.276 -0.000 C 262.547 -0.000,262.406 0.022,262.725 0.395 M338.444 42.361 C 338.444 42.470,337.572 44.068,336.506 45.913 C 334.677 49.079,333.280 51.521,329.038 58.963 C 325.309 65.505,314.671 84.012,313.642 85.748 C 312.960 86.897,311.990 86.785,324.823 87.036 C 331.136 87.159,340.868 87.362,346.449 87.488 C 367.882 87.969,378.434 88.157,378.530 88.061 C 378.659 87.933,377.210 86.117,375.818 84.660 C 375.222 84.036,374.533 83.196,374.288 82.793 C 374.043 82.389,373.696 82.003,373.518 81.935 C 373.341 81.867,372.574 81.008,371.814 80.026 C 371.055 79.044,370.348 78.241,370.245 78.241 C 370.141 78.241,369.848 77.914,369.595 77.514 C 369.342 77.115,368.578 76.176,367.896 75.429 C 366.213 73.583,357.631 63.703,356.949 62.825 C 356.647 62.437,355.835 61.491,355.145 60.722 C 354.454 59.954,353.209 58.533,352.378 57.566 C 351.547 56.598,350.344 55.197,349.704 54.453 C 349.065 53.709,348.005 52.492,347.349 51.747 C 346.693 51.003,345.729 49.887,345.207 49.267 C 344.685 48.647,343.635 47.441,342.873 46.587 C 342.111 45.732,341.336 44.814,341.150 44.545 C 340.122 43.061,338.444 41.707,338.444 42.361 M85.440 54.100 C 85.799 54.327,85.934 54.153,81.877 58.674 C 80.573 60.128,79.480 61.292,79.449 61.260 C 79.418 61.229,79.913 59.558,80.550 57.546 L 81.707 53.890 83.413 53.893 C 84.351 53.895,85.263 53.988,85.440 54.100 M165.953 57.501 C 165.953 57.777,167.293 63.716,168.242 67.644 C 168.617 69.194,169.462 72.796,170.120 75.648 C 170.779 78.501,172.043 83.929,172.929 87.711 C 173.815 91.494,174.960 96.414,175.473 98.645 L 176.407 102.701 175.828 104.282 C 175.509 105.151,174.314 108.247,173.172 111.161 C 172.029 114.076,170.706 117.475,170.232 118.715 C 169.757 119.955,168.509 123.176,167.458 125.874 C 165.847 130.010,165.611 130.778,165.949 130.778 C 166.557 130.778,181.155 129.241,183.089 128.973 C 184.019 128.844,188.230 128.382,192.446 127.946 C 196.663 127.509,202.432 126.897,205.267 126.585 C 208.101 126.273,210.626 126.049,210.877 126.087 C 211.171 126.131,207.264 128.589,199.860 133.018 C 188.545 139.786,175.985 147.349,173.211 149.064 C 172.429 149.548,171.712 149.944,171.617 149.944 C 171.523 149.944,170.752 147.737,169.905 145.039 C 169.057 142.342,167.745 138.165,166.989 135.757 C 166.233 133.349,165.513 131.351,165.389 131.317 C 165.265 131.283,164.541 132.036,163.779 132.990 C 161.537 135.799,154.757 144.099,153.705 145.321 C 153.172 145.941,151.633 147.818,150.284 149.493 C 148.936 151.167,147.497 152.935,147.086 153.421 C 146.675 153.908,146.374 154.341,146.417 154.384 C 146.535 154.502,154.352 153.202,158.061 152.447 C 162.449 151.554,171.136 150.091,171.267 150.223 C 171.397 150.352,170.472 152.959,164.905 168.151 C 164.303 169.793,163.729 171.138,163.628 171.138 C 163.478 171.139,156.821 164.865,147.858 156.275 L 146.110 154.600 146.110 155.303 C 146.110 155.689,145.949 160.095,145.752 165.094 C 145.280 177.060,145.251 176.708,147.189 182.525 C 148.056 185.130,149.546 189.696,150.500 192.672 C 152.117 197.718,157.369 213.856,159.887 221.513 C 160.495 223.362,160.992 225.011,160.992 225.177 C 160.992 225.401,161.401 225.479,162.571 225.479 L 164.150 225.479 164.037 206.483 C 163.975 196.034,163.879 183.935,163.823 179.594 C 163.767 175.254,163.763 171.804,163.814 171.928 C 163.937 172.230,166.211 179.496,167.413 183.427 C 170.362 193.075,170.953 194.998,171.916 198.083 C 172.497 199.944,173.379 202.772,173.875 204.368 L 174.778 207.271 174.331 208.314 C 173.904 209.309,173.147 211.316,170.237 219.166 C 169.524 221.088,168.684 223.269,168.369 224.014 L 167.797 225.366 195.078 225.424 C 210.082 225.455,234.579 225.455,249.515 225.424 L 276.671 225.366 274.243 224.029 C 263.669 218.206,260.854 216.653,258.286 215.226 C 256.674 214.330,254.087 212.903,252.537 212.055 C 250.986 211.207,249.690 210.496,249.656 210.475 C 249.554 210.411,251.609 206.858,256.822 198.083 C 258.148 195.851,259.973 192.756,260.879 191.206 C 261.784 189.656,263.151 187.322,263.917 186.020 C 266.283 181.995,267.695 179.457,267.611 179.380 C 267.529 179.304,261.375 178.934,246.597 178.116 C 237.398 177.607,238.102 177.549,234.611 179.089 C 232.039 180.223,224.150 183.540,224.026 183.540 C 223.974 183.540,222.386 184.200,220.498 185.007 C 218.609 185.814,217.024 186.434,216.975 186.385 C 216.884 186.294,217.991 174.167,219.158 162.458 C 219.516 158.861,220.038 153.303,220.318 150.105 L 220.827 144.292 220.300 143.228 C 218.429 139.446,212.221 126.494,212.279 126.494 C 212.381 126.494,216.477 130.975,220.180 135.137 L 223.337 138.685 223.395 116.421 L 223.452 94.157 221.859 89.976 C 220.325 85.948,219.445 83.657,216.442 75.874 C 215.676 73.890,214.717 71.353,214.310 70.237 C 212.618 65.597,213.394 66.201,207.779 65.158 C 206.415 64.905,202.711 64.199,199.549 63.589 C 196.387 62.980,192.430 62.230,190.755 61.923 C 187.111 61.254,175.981 59.137,170.401 58.051 C 165.917 57.179,165.953 57.183,165.953 57.501 M37.196 72.097 C 36.798 72.934,36.137 74.329,35.725 75.197 C 35.314 76.065,34.852 77.232,34.699 77.790 C 34.545 78.348,34.340 78.911,34.243 79.042 C 34.146 79.172,33.998 79.730,33.914 80.282 C 33.829 80.834,33.685 81.387,33.593 81.511 C 33.500 81.635,33.252 82.598,33.042 83.651 C 32.831 84.705,32.574 85.669,32.471 85.793 C 32.024 86.336,31.555 95.715,31.998 95.254 C 32.111 95.136,32.713 93.061,33.336 90.643 C 33.958 88.224,35.337 82.880,36.400 78.766 C 37.462 74.652,38.331 71.126,38.331 70.930 C 38.331 70.181,37.890 70.634,37.196 72.097 M131.113 86.410 C 122.638 95.143,116.569 101.392,116.387 101.576 C 116.248 101.716,117.097 116.686,117.255 116.869 C 117.391 117.027,119.097 114.205,122.207 108.681 C 122.660 107.875,123.978 105.592,125.135 103.608 C 126.292 101.623,128.252 98.224,129.491 96.054 C 130.729 93.884,132.080 91.541,132.492 90.848 C 132.904 90.154,133.835 88.531,134.561 87.240 C 135.558 85.465,138.753 79.896,140.402 77.057 C 140.681 76.577,139.644 77.622,131.113 86.410 M265.684 93.517 C 262.623 96.775,241.512 119.360,230.233 131.444 C 226.592 135.345,223.716 138.571,223.842 138.612 C 223.968 138.654,225.377 138.375,226.973 137.991 C 228.570 137.607,232.159 136.796,234.949 136.190 C 237.740 135.583,241.094 134.832,242.403 134.521 C 243.713 134.209,246.503 133.589,248.604 133.144 C 250.705 132.698,254.808 131.788,257.723 131.121 C 260.637 130.455,263.833 129.739,264.825 129.532 C 265.817 129.324,267.136 129.014,267.756 128.842 C 268.377 128.671,271.674 127.920,275.085 127.174 C 284.490 125.116,286.761 124.590,286.914 124.436 C 286.992 124.358,284.649 119.843,281.708 114.402 C 278.768 108.961,275.513 102.897,274.476 100.925 C 271.702 95.655,268.807 90.417,268.667 90.417 C 268.629 90.417,267.286 91.812,265.684 93.517 M366.028 101.297 C 358.659 108.875,358.231 109.379,357.315 111.555 C 354.874 117.359,349.959 123.622,344.306 128.136 C 341.520 130.360,334.676 135.061,334.216 135.067 C 333.999 135.070,331.198 137.657,327.990 140.817 C 324.783 143.976,322.234 146.561,322.325 146.561 C 322.524 146.561,326.005 145.244,332.469 142.723 C 335.073 141.708,338.726 140.289,340.586 139.570 C 342.446 138.851,345.218 137.778,346.746 137.185 L 349.523 136.107 373.324 159.908 L 397.124 183.708 392.685 196.758 C 390.244 203.936,387.694 211.437,387.020 213.428 C 385.461 218.034,385.431 218.567,386.818 217.024 C 387.375 216.404,388.184 215.523,388.615 215.066 C 389.046 214.610,389.517 213.976,389.662 213.657 C 389.807 213.338,390.014 213.078,390.121 213.078 C 390.228 213.078,390.412 212.824,390.530 212.514 C 390.648 212.204,390.832 211.950,390.939 211.950 C 391.158 211.950,392.891 209.323,393.289 208.388 C 393.432 208.053,393.682 207.617,393.846 207.419 C 394.233 206.953,395.939 203.597,395.949 203.284 C 395.953 203.152,396.153 202.638,396.392 202.142 C 396.632 201.646,396.835 201.088,396.843 200.902 C 396.851 200.716,397.007 200.367,397.189 200.126 C 397.484 199.736,397.520 200.108,397.520 203.565 C 397.520 208.800,397.816 208.807,399.073 203.604 L 400.000 199.768 400.000 169.924 L 400.000 140.081 398.929 139.948 C 398.340 139.875,396.742 139.754,395.378 139.678 C 394.014 139.602,392.694 139.454,392.446 139.349 C 392.198 139.244,387.740 138.845,382.538 138.462 C 377.337 138.079,373.023 137.673,372.953 137.559 C 372.883 137.446,372.546 137.283,372.205 137.197 C 370.075 136.662,371.884 136.591,383.480 136.750 C 395.031 136.909,396.608 136.853,395.740 136.317 C 395.624 136.246,389.763 136.081,382.714 135.952 C 370.194 135.721,366.934 135.503,366.065 134.836 C 365.941 134.741,365.079 134.538,364.149 134.386 C 363.219 134.233,362.356 134.030,362.232 133.934 C 362.108 133.838,361.601 133.702,361.105 133.630 C 360.609 133.559,359.493 133.386,358.625 133.246 C 357.756 133.106,355.879 132.924,354.453 132.843 L 351.860 132.694 353.044 131.801 C 353.695 131.309,354.228 130.796,354.228 130.660 C 354.228 130.525,354.630 130.115,355.121 129.750 C 355.612 129.385,356.469 128.472,357.023 127.721 C 357.578 126.970,358.394 125.961,358.836 125.479 C 359.278 124.997,359.639 124.513,359.639 124.405 C 359.639 124.297,359.893 123.876,360.203 123.470 C 360.513 123.063,360.767 122.622,360.767 122.489 C 360.767 122.356,360.843 122.213,360.936 122.172 C 361.377 121.976,362.926 119.141,363.348 117.756 C 363.433 117.477,363.597 117.249,363.713 117.249 C 363.829 117.249,363.923 117.155,363.923 117.039 C 363.923 116.924,364.220 116.188,364.583 115.405 C 364.946 114.621,365.463 113.269,365.734 112.401 C 366.004 111.533,366.314 110.620,366.423 110.372 C 366.599 109.971,366.815 109.169,367.242 107.328 C 367.314 107.018,367.451 106.713,367.546 106.650 C 367.642 106.586,367.840 105.470,367.986 104.169 C 368.131 102.868,368.343 101.628,368.455 101.412 C 368.713 100.916,368.722 98.985,368.467 98.985 C 368.361 98.985,367.264 100.025,366.028 101.297 M35.319 114.374 C 35.504 114.777,35.750 115.283,35.866 115.499 C 35.982 115.714,36.077 116.044,36.077 116.231 C 36.077 116.419,36.178 116.573,36.302 116.573 C 36.426 116.573,36.529 116.700,36.530 116.855 C 36.531 117.010,36.781 117.644,37.086 118.264 C 37.391 118.884,37.644 119.518,37.648 119.673 C 37.652 119.828,37.750 119.955,37.865 119.955 C 37.981 119.955,38.139 120.156,38.217 120.401 C 38.465 121.181,40.657 124.644,41.488 125.569 C 41.674 125.776,42.127 126.347,42.495 126.839 C 43.440 128.105,46.698 131.338,47.549 131.856 L 48.264 132.290 44.989 132.450 C 43.188 132.537,41.181 132.711,40.530 132.837 C 39.879 132.962,38.965 133.119,38.499 133.185 C 38.033 133.251,37.596 133.397,37.528 133.507 C 37.459 133.618,37.105 133.709,36.740 133.709 C 36.375 133.709,36.077 133.787,36.077 133.883 C 36.077 133.979,35.395 134.187,34.561 134.345 C 33.728 134.503,32.993 134.712,32.927 134.809 C 32.670 135.189,30.070 135.573,29.570 135.305 C 29.073 135.039,21.637 135.960,20.631 136.413 C 20.383 136.524,16.325 137.183,11.612 137.876 C 6.900 138.570,2.841 139.228,2.593 139.339 C 2.345 139.450,1.660 139.605,1.071 139.683 L 0.000 139.825 0.000 155.039 C 0.000 167.476,0.056 170.344,0.307 170.752 C 0.564 171.171,0.566 171.687,0.318 173.957 C -0.241 179.077,0.044 192.785,0.709 192.785 C 0.815 192.785,0.902 193.052,0.902 193.379 C 0.902 194.282,1.410 196.843,1.589 196.843 C 1.675 196.843,1.814 197.268,1.897 197.786 C 2.096 199.029,2.163 198.959,5.645 193.907 C 7.985 190.512,8.344 189.874,8.236 189.303 C 7.967 187.873,7.629 184.488,7.704 183.972 C 7.770 183.521,7.958 183.735,8.796 185.213 C 10.126 187.559,9.806 187.672,13.683 183.488 C 15.553 181.470,23.740 172.717,31.876 164.036 C 40.013 155.355,46.670 148.202,46.668 148.140 C 46.667 148.078,45.749 147.368,44.627 146.561 C 39.112 142.596,37.837 141.604,38.131 141.505 C 39.334 141.101,40.737 140.879,44.212 140.543 L 48.175 140.160 48.794 136.653 C 49.792 130.990,50.097 129.332,50.201 128.989 C 50.300 128.665,51.256 130.657,53.552 135.964 C 54.222 137.514,55.614 140.660,56.645 142.954 L 58.520 147.125 65.280 149.842 C 75.285 153.863,87.232 158.690,92.221 160.726 C 94.639 161.714,96.641 162.501,96.669 162.476 C 96.735 162.417,94.885 157.581,93.902 155.242 C 93.485 154.250,92.167 150.953,90.974 147.914 C 87.960 140.241,86.052 135.413,86.000 135.331 C 85.943 135.240,83.050 134.657,75.874 133.289 C 67.819 131.755,53.913 129.048,51.860 128.615 L 50.169 128.258 42.833 120.950 C 35.583 113.727,34.649 112.909,35.319 114.374 M280.659 156.519 C 280.480 156.809,280.055 157.554,279.715 158.174 C 279.140 159.218,275.340 166.007,271.130 173.506 C 268.213 178.703,268.103 178.908,268.099 179.172 C 268.097 179.311,269.946 180.522,272.210 181.862 C 281.321 187.258,291.988 193.598,293.745 194.661 C 294.769 195.281,295.652 195.742,295.708 195.686 C 295.807 195.587,295.522 194.783,292.555 186.809 C 291.771 184.701,290.609 181.556,289.973 179.820 C 288.401 175.525,285.815 168.581,284.767 165.840 C 284.293 164.600,283.285 161.914,282.527 159.872 C 280.939 155.592,281.077 155.840,280.659 156.519 M313.179 211.635 C 309.441 213.479,306.064 215.131,296.054 220.014 C 293.636 221.194,290.135 222.904,288.275 223.814 L 284.893 225.468 324.126 225.456 C 345.705 225.449,363.207 225.384,363.021 225.312 C 362.835 225.239,358.472 223.733,353.326 221.964 C 348.179 220.195,341.026 217.720,337.430 216.463 C 324.896 212.083,317.861 209.696,317.489 209.696 C 317.283 209.696,315.343 210.569,313.179 211.635 M100.225 218.071 C 97.373 221.173,94.697 224.109,94.277 224.595 L 93.515 225.479 116.600 225.465 C 129.296 225.457,139.481 225.367,139.233 225.264 C 138.985 225.161,136.347 224.142,133.371 222.999 C 130.395 221.856,126.387 220.313,124.464 219.570 C 111.858 214.700,105.782 212.398,105.578 212.416 C 105.487 212.424,103.078 214.968,100.225 218.071 M17.993 220.180 C 17.789 220.395,18.083 220.668,19.701 221.764 C 21.898 223.252,22.178 223.429,22.999 223.842 C 23.433 224.060,23.839 224.290,23.901 224.352 C 23.964 224.414,24.440 224.693,24.961 224.972 L 25.907 225.479 37.884 225.479 L 49.862 225.479 48.463 223.788 C 46.847 221.834,46.988 221.898,46.240 222.783 L 45.660 223.469 43.856 223.227 C 41.590 222.923,40.475 222.679,37.091 221.748 C 34.087 220.922,18.504 219.642,17.993 220.180 " stroke="none" fill="#f9fafa" fill-rule="evenodd"></path><path id="path4" d="M345.660 137.663 C 341.186 139.418,337.218 140.961,330.891 143.406 C 328.286 144.412,325.141 145.630,323.901 146.112 C 322.661 146.595,320.327 147.260,318.715 147.592 C 317.103 147.923,314.414 148.492,312.740 148.857 C 311.065 149.222,306.956 150.115,303.608 150.842 C 300.259 151.569,295.643 152.578,293.348 153.083 C 291.054 153.588,287.401 154.390,285.231 154.865 C 282.295 155.507,281.295 155.810,281.323 156.049 C 281.358 156.355,282.694 160.013,285.640 167.869 C 286.384 169.853,287.403 172.593,287.905 173.957 C 288.406 175.321,289.134 177.300,289.522 178.354 C 289.909 179.408,290.864 181.995,291.644 184.104 C 294.666 192.274,295.829 195.497,295.829 195.703 C 295.829 195.974,292.262 193.923,282.525 188.051 C 281.347 187.341,278.861 185.866,277.001 184.773 C 275.141 183.680,272.370 182.041,270.843 181.129 C 269.316 180.218,267.985 179.523,267.884 179.585 C 267.677 179.713,267.304 180.336,262.342 188.839 C 260.387 192.187,258.210 195.891,257.502 197.069 C 256.795 198.247,255.476 200.479,254.572 202.029 C 253.668 203.579,252.499 205.558,251.975 206.426 C 250.516 208.845,249.720 210.338,249.837 210.437 C 250.006 210.580,261.854 217.150,267.306 220.125 C 268.670 220.869,269.887 221.553,270.011 221.645 C 270.135 221.736,271.777 222.636,273.660 223.645 L 277.083 225.479 280.923 225.479 L 284.763 225.479 301.088 217.481 L 317.413 209.483 321.333 210.811 C 323.490 211.542,329.464 213.607,334.611 215.399 C 351.557 221.300,357.125 223.224,357.255 223.224 C 357.326 223.224,358.754 223.732,360.428 224.352 L 363.474 225.479 373.358 225.479 L 383.243 225.479 383.982 223.055 C 384.388 221.722,384.920 220.186,385.165 219.641 C 385.410 219.096,385.643 218.234,385.684 217.724 C 385.725 217.215,386.028 216.037,386.358 215.107 C 386.688 214.177,388.971 207.480,391.431 200.225 C 393.891 192.971,396.163 186.290,396.480 185.379 L 397.056 183.724 373.350 159.957 C 360.312 146.885,349.585 136.192,349.512 136.196 C 349.439 136.199,347.706 136.860,345.660 137.663 " stroke="none" fill="#04b349" fill-rule="evenodd"></path></g></svg>