<svg id="svg" version="1.1" xmlns="http://www.w3.org/2000/svg" xmlns:xlink="http://www.w3.org/1999/xlink" width="400" height="225" viewBox="0, 0, 400,225"><g id="svgg"><path id="path0" d="M-0.000 112.500 L 0.000 225.000 11.458 225.000 L 22.917 225.000 22.914 216.510 L 22.911 208.021 24.403 194.375 C 25.267 186.475,25.996 180.618,26.135 180.466 C 26.327 180.255,27.786 180.432,33.448 181.353 C 37.338 181.985,44.974 183.212,50.417 184.080 C 55.859 184.948,61.669 185.881,63.326 186.152 C 64.984 186.424,66.355 186.627,66.373 186.604 C 66.391 186.581,60.742 180.336,53.819 172.726 C 46.896 165.116,41.275 158.788,41.327 158.664 C 41.643 157.918,55.286 130.284,55.402 130.155 C 55.480 130.068,58.341 133.092,61.760 136.874 C 65.179 140.656,68.024 143.750,68.083 143.750 C 68.221 143.750,68.497 144.063,61.686 136.486 C 58.456 132.892,55.843 129.920,55.881 129.883 C 55.918 129.846,59.696 130.093,64.276 130.432 C 68.857 130.771,76.380 131.306,80.995 131.621 L 89.387 132.194 89.276 131.670 C 89.216 131.382,88.227 126.146,87.079 120.034 L 84.992 108.923 90.107 88.993 C 92.921 78.031,95.290 68.898,95.372 68.698 C 95.478 68.438,96.324 70.020,98.325 74.219 C 99.868 77.456,101.574 80.930,102.117 81.940 C 102.661 82.950,103.169 83.981,103.247 84.232 C 103.326 84.482,103.449 84.734,103.521 84.792 C 103.644 84.889,106.177 90.070,108.997 95.993 L 110.214 98.548 116.826 91.221 C 120.462 87.191,123.466 83.778,123.501 83.636 C 123.535 83.494,120.709 77.017,117.221 69.241 C 105.997 44.225,104.815 41.574,104.867 41.522 C 104.919 41.470,111.087 43.046,125.059 46.683 C 129.389 47.810,133.063 48.681,133.224 48.619 C 133.582 48.482,136.466 45.412,157.664 22.604 L 162.892 16.979 161.290 16.883 L 159.688 16.788 161.397 16.675 L 163.107 16.563 158.053 8.333 L 153.000 0.104 76.500 0.052 L -0.000 -0.001 -0.000 112.500 M155.990 17.027 C 155.560 17.072,154.857 17.072,154.427 17.027 C 153.997 16.982,154.349 16.945,155.208 16.945 C 156.068 16.945,156.419 16.982,155.990 17.027 M119.583 81.365 C 119.583 81.422,119.302 81.324,118.958 81.146 C 118.615 80.968,118.333 80.776,118.333 80.718 C 118.333 80.661,118.615 80.760,118.958 80.938 C 119.302 81.115,119.583 81.308,119.583 81.365 M121.458 82.404 C 121.458 82.462,121.083 82.317,120.625 82.083 C 120.167 81.850,119.792 81.611,119.792 81.554 C 119.792 81.497,120.167 81.641,120.625 81.875 C 121.083 82.109,121.458 82.347,121.458 82.404 M123.333 83.446 C 123.333 83.503,122.958 83.359,122.500 83.125 C 122.042 82.891,121.667 82.653,121.667 82.596 C 121.667 82.538,122.042 82.683,122.500 82.917 C 122.958 83.150,123.333 83.389,123.333 83.446 M42.865 158.897 C 43.122 158.947,43.544 158.947,43.802 158.897 C 44.060 158.847,43.849 158.807,43.333 158.807 C 42.818 158.807,42.607 158.847,42.865 158.897 " stroke="none" fill="#4d41a5" fill-rule="evenodd"></path><path id="path1" d="M227.034 1.220 C 217.143 14.809,216.361 15.819,216.017 15.458 C 215.831 15.263,213.265 11.917,210.313 8.021 C 207.362 4.125,204.795 0.776,204.609 0.579 C 204.298 0.249,184.324 30.848,184.254 31.761 C 184.245 31.881,185.792 33.573,187.692 35.521 L 191.146 39.063 187.575 35.546 L 184.003 32.029 175.015 39.651 C 170.071 43.843,166.025 47.347,166.023 47.438 C 166.020 47.632,165.248 47.463,176.771 49.796 C 190.218 52.518,208.187 56.242,208.268 56.324 C 208.292 56.348,201.656 61.165,193.520 67.027 L 178.727 77.687 175.786 81.708 C 162.857 99.383,163.815 97.988,162.655 100.833 C 159.222 109.256,151.555 127.186,149.115 132.500 C 147.458 136.109,144.331 142.906,142.167 147.604 L 138.233 156.146 127.438 173.125 C 121.501 182.464,116.480 190.339,116.281 190.625 C 116.005 191.022,109.728 205.655,105.988 214.621 L 105.582 215.596 108.860 220.298 L 112.138 225.000 178.153 225.000 C 214.460 225.000,244.167 224.950,244.167 224.889 C 244.167 224.763,243.917 224.094,240.438 214.893 C 239.051 211.224,237.917 208.098,237.917 207.947 C 237.917 207.700,239.762 204.790,245.929 195.313 C 248.457 191.428,254.702 181.766,255.658 180.262 C 256.361 179.154,256.637 178.152,259.255 167.188 C 260.814 160.656,262.186 155.090,262.303 154.818 C 262.506 154.343,269.188 144.662,279.100 130.480 C 280.397 128.624,281.458 127.060,281.458 127.004 C 281.458 126.874,296.484 104.721,296.666 104.583 C 296.855 104.440,306.678 75.184,306.672 74.782 C 306.669 74.605,304.849 71.065,302.627 66.917 C 300.405 62.769,298.600 59.369,298.616 59.361 C 298.633 59.353,304.350 59.219,311.322 59.063 C 318.294 58.907,324.029 58.749,324.067 58.711 C 324.151 58.626,323.963 57.848,322.088 50.521 C 321.267 47.313,320.563 44.547,320.524 44.375 C 320.432 43.964,317.909 34.187,317.004 30.729 C 316.613 29.240,316.308 28.004,316.326 27.984 C 316.344 27.964,318.842 27.751,321.877 27.511 C 324.912 27.271,327.818 27.033,328.333 26.982 C 328.849 26.931,329.786 26.838,330.417 26.776 C 331.047 26.714,332.172 26.615,332.917 26.556 C 337.751 26.177,343.145 25.674,343.224 25.596 C 343.274 25.545,340.578 21.940,337.231 17.585 C 333.884 13.230,329.478 7.492,327.439 4.834 L 323.732 0.000 275.827 0.000 L 227.921 0.000 227.034 1.220 M187.917 30.104 C 187.401 30.380,186.885 30.606,186.771 30.606 C 186.656 30.606,186.984 30.380,187.500 30.104 C 188.016 29.828,188.531 29.602,188.646 29.602 C 188.760 29.602,188.432 29.828,187.917 30.104 " stroke="none" fill="#d03846" fill-rule="evenodd"></path><path id="path2" d="M396.978 54.302 L 394.061 55.885 387.395 67.369 L 380.729 78.852 370.422 89.082 L 360.114 99.312 363.215 109.604 C 367.483 123.768,367.593 124.144,367.488 124.237 C 367.438 124.282,362.474 126.263,356.458 128.640 C 350.443 131.016,343.388 133.803,340.781 134.833 C 338.175 135.864,336.095 136.792,336.160 136.898 C 336.260 137.059,350.037 149.913,363.125 162.056 C 365.130 163.917,366.798 165.560,366.832 165.709 C 366.866 165.857,361.100 171.499,354.020 178.245 L 341.146 190.512 334.887 201.871 C 331.445 208.118,327.016 215.824,325.044 218.996 C 323.072 222.168,321.458 224.817,321.458 224.882 C 321.458 224.947,339.130 225.000,360.729 225.000 L 400.000 225.000 400.000 138.854 C 400.000 91.474,399.977 52.711,399.948 52.714 C 399.919 52.717,398.583 53.432,396.978 54.302 " stroke="none" fill="#d59644" fill-rule="evenodd"></path><path id="path3" d="M154.050 1.823 C 154.672 2.826,156.964 6.552,159.143 10.104 L 163.105 16.563 161.396 16.675 L 159.688 16.788 161.290 16.883 L 162.892 16.979 157.664 22.604 C 136.466 45.412,133.582 48.482,133.224 48.619 C 133.063 48.681,129.389 47.810,125.059 46.683 C 111.087 43.046,104.919 41.470,104.867 41.522 C 104.815 41.574,105.997 44.225,117.221 69.241 C 120.709 77.017,123.535 83.494,123.501 83.636 C 123.466 83.778,120.462 87.191,116.826 91.221 L 110.214 98.548 108.997 95.993 C 106.177 90.070,103.644 84.889,103.521 84.792 C 103.449 84.734,103.326 84.482,103.247 84.232 C 103.169 83.981,102.661 82.950,102.117 81.940 C 101.574 80.930,99.868 77.456,98.325 74.219 C 96.324 70.020,95.478 68.438,95.372 68.698 C 95.290 68.898,92.921 78.031,90.107 88.993 L 84.992 108.923 87.079 120.034 C 88.227 126.146,89.216 131.382,89.276 131.670 L 89.387 132.194 80.995 131.621 C 76.380 131.306,68.857 130.771,64.276 130.432 C 59.696 130.093,55.918 129.846,55.881 129.883 C 55.843 129.920,58.456 132.892,61.686 136.486 C 68.497 144.063,68.221 143.750,68.083 143.750 C 68.024 143.750,65.179 140.656,61.760 136.874 C 58.341 133.092,55.480 130.068,55.402 130.155 C 55.286 130.284,41.643 157.918,41.327 158.664 C 41.275 158.788,46.896 165.116,53.819 172.726 C 60.742 180.336,66.391 186.581,66.373 186.604 C 66.355 186.627,64.984 186.424,63.326 186.152 C 61.669 185.881,55.859 184.948,50.417 184.080 C 44.974 183.212,37.338 181.985,33.448 181.353 C 27.786 180.432,26.327 180.255,26.135 180.466 C 25.996 180.618,25.267 186.475,24.403 194.375 L 22.911 208.021 22.914 216.510 L 22.917 225.000 67.510 225.000 C 104.420 225.000,112.075 224.953,111.937 224.725 C 111.846 224.573,110.379 222.457,108.677 220.021 L 105.583 215.593 105.989 214.619 C 109.729 205.654,116.005 191.022,116.281 190.625 C 116.480 190.339,121.501 182.464,127.438 173.125 L 138.233 156.146 142.167 147.604 C 144.331 142.906,147.458 136.109,149.115 132.500 C 151.555 127.186,159.222 109.256,162.655 100.833 C 163.815 97.988,162.857 99.383,175.786 81.708 L 178.727 77.687 193.520 67.027 C 201.656 61.165,208.292 56.348,208.268 56.324 C 208.187 56.242,190.218 52.518,176.771 49.796 C 165.252 47.463,166.027 47.633,166.027 47.439 C 166.026 47.348,170.071 43.843,175.015 39.651 L 184.003 32.029 187.575 35.546 L 191.146 39.063 187.692 35.521 C 185.792 33.573,184.245 31.881,184.254 31.761 C 184.324 30.848,204.298 0.249,204.609 0.579 C 204.795 0.776,207.362 4.125,210.313 8.021 C 213.265 11.917,215.831 15.263,216.017 15.458 C 216.371 15.829,216.541 15.610,226.199 2.360 L 227.919 -0.000 190.419 -0.000 L 152.920 0.000 154.050 1.823 M154.427 17.027 C 154.857 17.072,155.560 17.072,155.990 17.027 C 156.419 16.982,156.068 16.945,155.208 16.945 C 154.349 16.945,153.997 16.982,154.427 17.027 M187.500 30.104 C 186.984 30.380,186.656 30.606,186.771 30.606 C 186.885 30.606,187.401 30.380,187.917 30.104 C 188.432 29.828,188.760 29.602,188.646 29.602 C 188.531 29.602,188.016 29.828,187.500 30.104 M118.333 80.718 C 118.333 80.776,118.615 80.968,118.958 81.146 C 119.302 81.324,119.583 81.422,119.583 81.365 C 119.583 81.308,119.302 81.115,118.958 80.938 C 118.615 80.760,118.333 80.661,118.333 80.718 M119.792 81.554 C 119.792 81.611,120.167 81.850,120.625 82.083 C 121.083 82.317,121.458 82.462,121.458 82.404 C 121.458 82.347,121.083 82.109,120.625 81.875 C 120.167 81.641,119.792 81.497,119.792 81.554 M121.667 82.596 C 121.667 82.653,122.042 82.891,122.500 83.125 C 122.958 83.359,123.333 83.503,123.333 83.446 C 123.333 83.389,122.958 83.150,122.500 82.917 C 122.042 82.683,121.667 82.538,121.667 82.596 M43.802 158.897 C 43.544 158.947,43.122 158.947,42.865 158.897 C 42.607 158.847,42.818 158.807,43.333 158.807 C 43.849 158.807,44.060 158.847,43.802 158.897 " stroke="none" fill="#841f7c" fill-rule="evenodd"></path><path id="path4" d="M325.689 2.552 C 326.767 3.956,331.173 9.694,335.481 15.304 C 339.790 20.915,343.273 25.546,343.223 25.596 C 343.145 25.674,337.737 26.178,332.917 26.556 C 332.172 26.615,331.047 26.714,330.417 26.776 C 329.786 26.838,328.849 26.931,328.333 26.982 C 327.818 27.033,324.912 27.271,321.877 27.511 C 318.842 27.751,316.344 27.964,316.326 27.984 C 316.308 28.004,316.613 29.240,317.004 30.729 C 317.909 34.187,320.432 43.964,320.524 44.375 C 320.563 44.547,321.267 47.313,322.088 50.521 C 323.963 57.848,324.151 58.626,324.067 58.711 C 324.029 58.749,318.294 58.907,311.322 59.063 C 304.350 59.219,298.633 59.353,298.616 59.361 C 298.600 59.369,300.405 62.769,302.627 66.917 C 304.849 71.065,306.669 74.605,306.672 74.782 C 306.678 75.184,296.855 104.440,296.666 104.583 C 296.484 104.721,281.458 126.874,281.458 127.004 C 281.458 127.060,280.397 128.624,279.100 130.480 C 269.188 144.662,262.506 154.343,262.303 154.818 C 262.186 155.090,260.814 160.656,259.255 167.188 C 256.637 178.152,256.361 179.154,255.658 180.262 C 254.702 181.766,248.457 191.428,245.929 195.313 C 239.762 204.790,237.917 207.700,237.917 207.947 C 237.917 208.098,239.034 211.177,240.400 214.788 C 241.766 218.400,243.189 222.174,243.561 223.177 L 244.238 225.000 282.796 224.994 L 321.354 224.988 325.104 218.914 C 327.167 215.573,331.620 207.816,335.000 201.675 L 341.146 190.511 354.020 178.245 C 361.100 171.498,366.866 165.857,366.832 165.709 C 366.798 165.560,365.130 163.917,363.125 162.056 C 350.037 149.913,336.260 137.059,336.160 136.898 C 336.095 136.792,338.175 135.864,340.781 134.833 C 343.388 133.803,350.443 131.016,356.458 128.640 C 362.474 126.263,367.438 124.282,367.488 124.237 C 367.593 124.144,367.483 123.768,363.215 109.604 L 360.114 99.312 370.422 89.082 L 380.729 78.852 387.396 67.368 L 394.062 55.883 397.031 54.282 L 400.000 52.681 400.000 26.341 L 400.000 0.000 361.865 -0.000 L 323.730 -0.000 325.689 2.552 " stroke="none" fill="#d67026" fill-rule="evenodd"></path></g></svg>